<?xml version="1.0" encoding="utf-8"?>
<svg xmlns="http://www.w3.org/2000/svg" viewBox="0 0 24 24" width="48px" height="48px">
  <circle xmlns="http://www.w3.org/2000/svg" cx="12" cy="12" r="12" style="fill:#ffddb4"></circle>
  <g transform="matrix(.0573 0 0 .0573 6.258 4.04)">
    <title>power+watch</title>
    <path d="M70.9 61.59c1.33.551 2.309 1.761 2.82 3.12.63 2.05-.14 4.52-1.85 6.15-2.56 2.38-5.26 7.45-6.28 11.68-.74 3.1-.8 8.05-.15 11.11a26.038 26.038 0 0 0 14.5 18.17 22.878 22.878 0 0 0 10.55 2.22c2.88 0 4.27-.14 6.2-.63 11.465-2.75 19.552-12.999 19.56-24.79.03-3.92-.54-6.96-1.88-10.03a23.89 23.89 0 0 0-4.43-7.14c-2.02-2.22-2.53-3.21-2.53-5-.103-3.562 3.325-6.17 6.73-5.12 3.2.91 8.8 8.73 11 15.41 1.23 3.58 1.66 6.11 1.8 10.46a32.8 32.8 0 0 1-1.8 12.8 36.68 36.68 0 0 1-28.11 24.3c-3.33.6-9.47.6-12.8 0a36.928 36.928 0 0 1-20.18-11.03 35.93 35.93 0 0 1-9.8-24.96c0-9.27 3.66-18.48 9.9-24.82 2.35-2.41 4.37-2.98 6.75-1.9Z" style="fill:#4f4539">
      <title>semicircle</title>
    </path>
    <path d="m85.27 88.35.04-22.05a5.34 5.34 0 0 1 1.48-3.6 5.12 5.12 0 0 1 7.34-.17 5.148 5.148 0 0 1 1.62 3.77l.01 2.76v17.11l5.24 5.22 3.9 3.87c1 1 1.55 2.36 1.51 3.78a5.02 5.02 0 0 1-5.23 5 5.327 5.327 0 0 1-3.56-1.5s-1.676-1.697-2.52-2.54c-2.735-2.732-8.24-8.16-8.24-8.16a5.783 5.783 0 0 1-1.15-1.63 4.407 4.407 0 0 1-.44-1.86Z" style="fill:#4f4539">
      <title>arrows</title>
    </path>
  </g>
  <g transform="matrix(.2605 0 0 .2605 4.626 4.497)">
    <title>1st SIM</title>
    <path d="M17.4 7.6c-.6 0-1.2-.48-1.2-1.15 0-.57.5-1.15 1.2-1.15H32c.3 0 .6.1.8.3l11.6 11.7c.2.2.3.5.3.8v33.6c0 2.5-2 4.6-4.6 4.6H12.3c-2.5 0-4.6-2-4.6-4.6V24.82H10V51.7c0 1.3 1 2.3 2.3 2.3h27.8c1.3 0 2.3-1 2.3-2.3V18.5L31.5 7.6h-.75Z" style="fill:#4f4539">
      <title>frame</title>
    </path>
    <path d="M36.2 48.94V32.91a3.05 3.05 0 0 0-3.02-3.02H19.22a3.05 3.05 0 0 0-3.02 3.02v16.03a3.05 3.05 0 0 0 3.02 3.02h13.96c1.73-.09 3.02-1.38 3.02-3.02Zm-5.95-17.07h3.02c.52 0 1.03.43 1.03 1.04v3.02h-3.96v-4.06h-.09Zm-6.03 0h3.96v3.97h-3.96v-3.97Zm-6.04 1.04c0-.52.43-1.04 1.04-1.04h3.01v5c0 .52.44 1.04 1.04 1.04h10.95v6.03H18.18V32.91Zm4.05 16.98h-3.01c-.52 0-1.04-.43-1.04-1.04v-3.01h3.97v4.05h.08Zm5.95 0h-3.96v-3.96h3.96v3.96Zm2.07-3.96h3.97v3.01c0 .52-.43 1.04-1.04 1.04h-3.01v-4.05h.08Z" style="fill:#4f4539">
      <title>chip</title>
    </path>
  </g>
  <path d="M102.45 51.04v50.728c0 1.022-.878 1.75-1.752 1.75-1.014 0-1.744-.876-1.744-1.75V51.772L83.079 35.888H49.246a3.291 3.291 0 0 0-3.346 3.346l-.005 27.519-3.345.015V39.236a6.684 6.684 0 0 1 6.704-6.696h34.545c.437 0 .876.142 1.167.429l16.904 16.904c.374.374.575.807.58 1.167Z" style="fill:#4f4539" transform="matrix(.17925 0 0 .17925 -.995 -.995)">
    <title>2nd SIM</title>
  </path>
</svg>
